<?xml version="1.0" encoding="UTF-8" standalone="no"?>
<svg
   xmlns:dc="http://purl.org/dc/elements/1.1/"
   xmlns:cc="http://creativecommons.org/ns#"
   xmlns:rdf="http://www.w3.org/1999/02/22-rdf-syntax-ns#"
   xmlns:svg="http://www.w3.org/2000/svg"
   xmlns="http://www.w3.org/2000/svg"
   xmlns:sodipodi="http://sodipodi.sourceforge.net/DTD/sodipodi-0.dtd"
   xmlns:inkscape="http://www.inkscape.org/namespaces/inkscape"
   sodipodi:docname="github logo-light.svg"
   inkscape:version="0.92.5 (2060ec1f9f, 2020-04-08)"
   id="svg114"
   version="1.1"
   viewBox="0 0 11.492894 11.209466"
   height="0.44131756in"
   width="0.45247614in">
  <defs
     id="defs108" />
  <sodipodi:namedview
     inkscape:window-maximized="1"
     inkscape:window-y="1051"
     inkscape:window-x="0"
     inkscape:window-height="1016"
     inkscape:window-width="1920"
     units="in"
     showgrid="false"
     inkscape:document-rotation="0"
     inkscape:current-layer="layer1"
     inkscape:document-units="mm"
     inkscape:cy="13.513547"
     inkscape:cx="38.620547"
     inkscape:zoom="11.2"
     inkscape:pageshadow="2"
     inkscape:pageopacity="0"
     borderopacity="1.0"
     bordercolor="#666666"
     pagecolor="#000000"
     id="base"
     fit-margin-top="0"
     fit-margin-left="0"
     fit-margin-right="0"
     fit-margin-bottom="0" />
  <metadata
     id="metadata111">
    <rdf:RDF>
      <cc:Work
         rdf:about="">
        <dc:format>image/svg+xml</dc:format>
        <dc:type
           rdf:resource="http://purl.org/dc/dcmitype/StillImage" />
        <dc:title></dc:title>
      </cc:Work>
    </rdf:RDF>
  </metadata>
  <g
     id="layer1"
     inkscape:groupmode="layer"
     inkscape:label="Layer 1"
     transform="translate(-97.422516,-139.22834)">
    <path
       inkscape:connector-curvature="0"
       id="path106"
       style="fill:#ffffff;fill-opacity:1;fill-rule:evenodd;stroke:none;stroke-width:0.0352777"
       d="m 103.16856,139.22834 c -3.172881,0 -5.746044,2.57281 -5.746044,5.74675 0,2.53894 1.646413,4.69265 3.929944,5.45254 0.28752,0.0529 0.39229,-0.12454 0.39229,-0.27694 0,-0.13652 -0.005,-0.49776 -0.008,-0.97719 -1.59844,0.34713 -1.935691,-0.77047 -1.935691,-0.77047 -0.26141,-0.66392 -0.63818,-0.84067 -0.63818,-0.84067 -0.52175,-0.3563 0.0395,-0.34925 0.0395,-0.34925 0.57679,0.0406 0.880181,0.59232 0.880181,0.59232 0.51258,0.87806 1.34514,0.62441 1.67252,0.47731 0.0522,-0.37113 0.20073,-0.62442 0.36477,-0.768 -1.276,-0.14499 -2.617611,-0.63818 -2.617611,-2.84021 0,-0.62724 0.22401,-1.14054 0.591601,-1.542 -0.0593,-0.14534 -0.256461,-0.72989 0.0564,-1.52082 0,0 0.48225,-0.15452 1.58009,0.58914 0.45826,-0.12771 0.95003,-0.19121 1.43863,-0.19368 0.48824,0.002 0.97966,0.066 1.43863,0.19368 1.09713,-0.74366 1.57868,-0.58914 1.57868,-0.58914 0.31362,0.79093 0.11641,1.37548 0.0575,1.52082 0.3683,0.40146 0.59055,0.91476 0.59055,1.542 0,2.20768 -1.34373,2.69345 -2.62361,2.83562 0.20602,0.17745 0.38982,0.52811 0.38982,1.06398 0,0.76835 -0.007,1.38818 -0.007,1.57656 0,0.15382 0.10372,0.33267 0.39511,0.27658 2.28177,-0.76164 3.92677,-2.91394 3.92677,-5.45218 0,-3.17394 -2.57316,-5.74675 -5.7471,-5.74675" />
  </g>
</svg>
